<?xml version="1.0" encoding="utf-8"?>
<!-- Generator: Adobe Illustrator 22.1.0, SVG Export Plug-In . SVG Version: 6.00 Build 0)  -->
<svg version="1.1" id="Layer_1" xmlns="http://www.w3.org/2000/svg" xmlns:xlink="http://www.w3.org/1999/xlink" x="0px" y="0px"
	 viewBox="0 0 178.8 176.3" style="enable-background:new 0 0 178.8 176.3;" xml:space="preserve">
<style type="text/css">
	.st0{fill:#FFFFFF;}
</style>
<g>
	<path class="st0" d="M51.2,47.4c-8.2,8.3-13.9,19.1-15.5,31.3h15.5V47.4z"/>
	<path class="st0" d="M96,31.9c-2.1-0.3-4.3-0.4-6.5-0.4c-1.8,0-3.5,0.1-5.2,0.3v47H96V31.9z"/>
	<path class="st0" d="M89.6,163.8c42.9,0,77.6-34.7,77.6-77.6S132.5,8.7,89.6,8.7S12.1,43.4,12.1,86.3S46.8,163.8,89.6,163.8z
		 M115.3,23.8c4.2,1.7,8.3,3.9,12,6.4l0,48.5h16.1c-0.9-6.7-3-13-6.2-18.7V38.4c12.1,12.1,19.6,28.9,19.6,47.4s-7.5,35.3-19.6,47.4
		v-21.5c3.3-6.1,5.6-12.8,6.3-20.1h-16.3l0,49.7c-3.7,2.5-7.8,4.7-12,6.4V23.8z M71.6,21.2c5.8-1.6,11.9-2.5,18.1-2.5
		c6.3,0,12.3,0.9,18.1,2.5v70.5H84.3v61c-4.4-0.4-8.6-1.1-12.7-2.3V21.2z M64.2,23.8v124.1c-4.6-1.9-9-4.3-13-7.2l0-49h0H35.5
		c0.7,6.7,2.7,13.1,5.7,18.9v21.6c-11.5-12-18.5-28.3-18.5-46.3C22.6,57.8,39.8,33.8,64.2,23.8z"/>
</g>
</svg>
