<svg width="211" height="31" viewBox="0 0 211 31" fill="none" xmlns="http://www.w3.org/2000/svg">
<path d="M20.3368 4.67575C21.4812 4.67575 22.409 3.74098 22.409 2.58788C22.409 1.43477 21.4812 0.5 20.3368 0.5C19.1924 0.5 18.2646 1.43477 18.2646 2.58788C18.2646 3.74098 19.1924 4.67575 20.3368 4.67575Z" fill="#003C71"/>
<path d="M14.1947 12.4898C15.8282 12.4898 16.9149 11.4221 16.9149 9.78307C16.9149 8.13725 15.7944 7.0083 14.1002 7.0083C12.5613 7.0083 11.4746 8.10324 11.4746 9.84427C11.4746 11.5241 12.5006 12.4898 14.1947 12.4898Z" fill="#003C71"/>
<path d="M16.0172 21.0386L12.3319 20.8481C11.1777 21.399 10.6377 21.9159 10.6377 22.6232C10.6377 23.7181 11.8526 24.4934 13.9046 24.4934C16.6922 24.4934 18.2581 23.5889 18.2581 22.3987C18.2581 21.4602 17.5224 21.0998 16.0172 21.0386Z" fill="#003C71"/>
<path d="M22.6723 3.87316C22.22 4.70287 21.3426 5.26734 20.3369 5.26734C18.8722 5.26734 17.6775 4.07039 17.6775 2.58779C17.6775 2.27495 17.7315 1.96891 17.8327 1.69007C16.746 1.42484 15.6121 1.28882 14.4444 1.28882C6.47297 1.28882 0 7.80408 0 15.8495C0 23.895 6.47297 30.4103 14.4511 30.4103C22.4293 30.4103 28.9022 23.8882 28.9022 15.8495C28.9022 10.8849 26.4318 6.49831 22.6723 3.87316ZM13.9719 27.3295C9.26734 27.3295 6.86445 25.8469 6.86445 23.1061C6.86445 21.5283 7.79591 20.6578 9.78032 20.0117C8.27514 19.2704 7.57317 18.5903 7.57317 17.4342C7.57317 16.2372 8.43713 15.081 10.0706 14.2377C8.53163 13.2992 7.73516 11.7826 7.73516 9.81715C7.73516 6.36229 10.2933 3.94797 14.1069 3.94797C15.6728 3.94797 17.2252 4.45804 18.4199 5.48497C19.2097 6.16506 19.8306 7.05598 20.1749 8.04891C20.4044 8.7222 20.4786 9.4363 20.4786 10.1436C20.4786 13.4012 18.1095 15.5299 14.2014 15.5299C13.4994 15.5299 12.8919 15.4687 12.379 15.3395C11.6432 15.6319 11.2923 16.0196 11.2923 16.4684C11.2923 17.5974 12.8312 17.5022 15.7133 17.7266C20.0331 18.0462 21.8623 18.8895 21.8623 22.1132C21.8488 25.4252 19.1287 27.3295 13.9719 27.3295Z" fill="#003C71"/>
<path fill-rule="evenodd" clip-rule="evenodd" d="M56.1775 21.914H52.7136V1.75H56.1775V21.914ZM50.9936 6.32555C50.9936 7.32399 50.1786 8.13313 49.1729 8.13313C48.1673 8.13313 47.3523 7.32399 47.3523 6.32555C47.3523 5.32711 48.1673 4.51857 49.1729 4.51857C50.1786 4.51857 50.9936 5.32711 50.9936 6.32555ZM44.2928 14.4033C45.7128 14.4033 46.6601 13.4915 46.6601 12.0804C46.6601 10.6699 45.6852 9.70253 44.2092 9.70253C42.8721 9.70253 41.9254 10.6424 41.9254 12.1359C41.9254 13.5739 42.8168 14.4033 44.2928 14.4033ZM41.2016 23.0866C41.2016 24.0265 42.2596 24.6912 44.0424 24.6912C46.4657 24.6912 47.8304 23.9167 47.8304 22.8931C47.8304 22.0912 47.1898 21.7866 45.881 21.7317L42.6776 21.5657C41.675 22.0356 41.2016 22.4781 41.2016 23.0866ZM38.5273 18.6341C38.5273 17.6106 39.2792 16.6158 40.6998 15.8962C39.3634 15.0948 38.6669 13.7948 38.6669 12.1079C38.6669 9.14898 40.8947 7.07567 44.2094 7.07567C45.5693 7.07567 46.9232 7.511 47.9637 8.39299C48.6512 8.97521 49.1919 9.73837 49.4879 10.5875C49.6887 11.1626 49.7519 11.7788 49.7519 12.3849C49.7519 15.1778 47.6907 17.0033 44.293 17.0033C43.6801 17.0033 43.1508 16.9478 42.7051 16.8367C42.0646 17.0857 41.7584 17.4177 41.7584 17.8047C41.7584 18.6285 42.7267 18.6915 44.5599 18.8109L44.56 18.8109C44.8809 18.8318 45.2284 18.8544 45.6018 18.8832C49.3622 19.1596 50.9494 19.8786 50.9494 22.644C50.9494 25.4924 48.5821 27.1238 44.0981 27.1238C40.0039 27.1238 37.915 25.8513 37.915 23.5009C37.915 22.146 38.7222 21.3996 40.449 20.8466C39.1402 20.2112 38.5273 19.6296 38.5273 18.6341ZM64.3626 19.2521C66.2344 19.2521 67.1281 17.7263 67.1281 14.648C67.1281 11.5691 66.2344 10.0714 64.3626 10.0714C62.5191 10.0714 61.5971 11.5691 61.5971 14.648C61.5971 17.7263 62.5191 19.2521 64.3626 19.2521ZM64.3627 7.10284C68.274 7.10284 70.6203 9.87721 70.6203 14.6479C70.6203 19.4179 68.2457 22.1923 64.3627 22.1923C60.4796 22.1923 58.105 19.3904 58.105 14.6479C58.105 9.87721 60.4519 7.10284 64.3627 7.10284ZM81.6275 14.6478C81.6275 17.6705 80.454 19.3073 78.5263 19.3073C77.5766 19.3073 76.7941 18.8911 75.928 18.0593V11.1526C76.8224 10.3483 77.6043 9.93205 78.554 9.93205C80.4258 9.93205 81.6275 11.5963 81.6275 14.6478ZM72.5477 1.75096V18.5309C72.5477 19.2242 72.4918 20.3618 72.3799 21.9144H75.0618L75.4257 20.3618C76.6268 21.6373 77.828 22.1921 79.3924 22.1921C82.7167 22.1921 85.0913 19.1693 85.0913 14.6476C85.0913 9.9606 82.6608 7.10323 79.5043 7.10323C78.0234 7.10323 76.9619 7.60245 75.9562 8.76809V1.75096H72.5477ZM89.5324 17.9206C89.5324 18.8915 90.0912 19.4744 91.0969 19.4744C92.1867 19.4744 93.2483 18.9745 94.3099 17.948V14.8417C91.0692 15.2853 89.5324 16.2008 89.5324 17.9206ZM94.3936 20.6387C93.0529 21.6091 91.5998 22.0808 90.0353 22.0808C87.5772 22.0808 86.1246 20.6107 86.1246 18.1976C86.1246 14.9526 88.8342 13.2329 94.4212 12.5396V11.4026C94.4212 10.3486 93.6953 9.73832 92.354 9.73832C91.0133 9.73832 89.9235 10.3205 89.1416 11.4026L86.7946 9.93239C88.024 8.04599 89.8958 7.10309 92.4105 7.10309C95.8461 7.10309 97.7738 8.73988 97.7738 11.4026V19.9454C97.7738 20.4452 97.858 21.1105 97.9976 21.9142H94.7009L94.3936 20.6387ZM104.17 21.914H100.706V1.75H104.17V21.914ZM109.187 18.031C110.639 19.8619 111.952 20.7773 113.573 20.7773C115.976 20.7773 117.4 18.6413 117.4 14.675C117.4 10.7087 115.976 8.57332 113.573 8.57332C111.952 8.57332 110.639 9.46068 109.187 11.291V18.031ZM107.455 7.40825H108.74L109.187 9.29406H109.326C110.695 7.85194 112.148 7.13058 113.712 7.13058C116.897 7.13058 119.132 9.87628 119.132 14.6475C119.132 19.4182 116.897 22.1639 113.712 22.1639C112.148 22.1639 110.695 21.4706 109.326 20.0279H109.187V27.1841H107.455V7.40825ZM121.981 18.2255C121.981 15.7569 124.244 14.8414 129.161 13.76V18.2255C127.457 19.9447 126.004 20.8052 124.412 20.8052C122.903 20.8052 121.981 19.8342 121.981 18.2255ZM124.189 22.1911C125.976 22.1911 127.568 21.471 129.161 20.0002C129.189 20.6111 129.3 21.2488 129.441 21.914H131.144C130.977 20.9992 130.893 20.3334 130.893 19.9721V10.9587C130.893 8.79522 128.965 7.15783 126.2 7.15783C123.685 7.15783 122.149 8.1288 121.003 10.1263L122.344 10.9032C123.211 9.34938 124.383 8.57248 125.976 8.57248C127.987 8.57248 129.189 9.54345 129.189 10.9587V12.3728C123.07 13.4542 120.249 14.9525 120.249 18.3078C120.249 20.5555 121.786 22.1911 124.189 22.1911ZM132.428 7.40842H134.16L138.463 19.7509L142.737 7.40842H144.385L138.881 23.052C137.876 25.9356 136.702 27.1282 134.188 27.1282C133.741 27.1282 133.238 27.1013 132.68 27.0177V25.6311C133.127 25.7141 133.546 25.7422 133.909 25.7422C136.004 25.7422 136.954 24.5771 137.512 21.8308L132.428 7.40842ZM147.71 7.40835H146.117V21.9144H147.793V11.3466C149.246 9.54436 150.671 8.6564 152.011 8.6564C154.079 8.6564 154.525 9.87698 154.525 12.4286V21.9144H156.202V11.3466C157.627 9.54436 159.08 8.6564 160.42 8.6564C162.488 8.6564 162.935 9.87698 162.935 12.4286V21.9144H164.583V11.8183C164.583 8.71194 163.354 7.15874 160.896 7.15874C159.331 7.15874 157.794 7.99058 156.202 9.65484H156.007C155.336 7.99058 154.163 7.15874 152.515 7.15874C150.978 7.15874 149.358 7.99058 147.821 9.65484H147.71V7.40835ZM172.74 8.5453C170.449 8.5453 168.829 10.2651 168.55 13.3715H176.568C176.484 10.237 175.031 8.5453 172.74 8.5453ZM178.272 18.4193C176.986 21.0264 175.338 22.164 172.768 22.164C169.137 22.164 166.818 19.3067 166.818 14.7576C166.818 9.96003 169.22 7.13073 172.712 7.13073C176.232 7.13073 178.188 9.54382 178.188 14.1479V14.6196H168.55C168.578 18.6408 170.114 20.7768 172.88 20.7768C174.751 20.7768 175.953 19.862 176.986 17.726L178.272 18.4193ZM182.182 7.40835H180.45V21.9144H182.182V11.3466C183.746 9.54436 185.282 8.6564 186.735 8.6564C188.97 8.6564 189.474 9.87698 189.474 12.4286V21.9144H191.178V11.8183C191.178 8.71194 189.864 7.15874 187.239 7.15874C185.618 7.15874 183.914 7.99058 182.182 9.6829V7.40835ZM198.3 20.8325C198.692 20.8325 199.195 20.7214 199.837 20.5548V21.942C199.195 22.1092 198.524 22.2191 197.881 22.2191C195.87 22.2191 195.003 21.2206 195.003 19.1127V8.82315H192.825V7.4085H195.003V3.109H196.708V7.4085H199.753V8.82315H196.708V19.1963C196.708 20.3052 197.211 20.8325 198.3 20.8325ZM209.001 18.1423C209.001 19.6674 207.799 20.805 205.983 20.805C204.279 20.805 202.826 19.9451 201.569 18.2803L200.284 19.3068C201.737 21.2487 203.496 22.1635 205.788 22.1635C208.804 22.1635 210.76 20.4169 210.76 18.0038C210.76 15.7012 209.28 14.8138 206.374 13.7317C206.14 13.6438 205.916 13.561 205.701 13.4818C203.683 12.7366 202.519 12.307 202.519 10.903C202.519 9.48839 203.553 8.51801 205.145 8.51801C206.765 8.51801 207.967 9.21131 209.085 10.6809L210.313 9.79353C209.028 8.04626 207.352 7.13083 205.451 7.13083C202.547 7.13083 200.731 8.76703 200.731 10.986C200.731 13.2045 202.268 14.0375 205.229 15.1189C205.376 15.1732 205.519 15.2257 205.658 15.2767C207.794 16.0588 209.001 16.5009 209.001 18.1423Z" fill="#003C71"/>
</svg>
