<svg version="1.1" id="Layer_1" xmlns="http://www.w3.org/2000/svg" x="0" y="0" viewBox="0 0 202 94.1" xml:space="preserve"><style>.st0{fill:#4a2051}</style><path class="st0" d="M42.9 87.7c-.4.2-1.4.4-2.6.4-3.9 0-5.6-2.4-5.6-5.1 0-3.6 2.7-5.5 5.7-5.5 1.2 0 2.2.2 2.6.5l-.5 2.2c-.5-.2-1.1-.4-1.9-.4-1.6 0-3 .9-3 3 0 1.9 1.1 3 3 3 .7 0 1.4-.1 1.9-.3l.4 2.2zM44.9 77.8c.8-.1 1.8-.2 3.4-.2 1.5 0 2.5.3 3.3.8.7.5 1.2 1.4 1.2 2.5 0 1-.4 2-1 2.5-.8.8-2.1 1.1-3.4 1.1h-.7V88H45l-.1-10.2zm2.7 4.6h.6c1.1 0 1.8-.6 1.8-1.4s-.5-1.3-1.6-1.3c-.4 0-.7 0-.8.1v2.6zM56.6 85.6L56 88h-2.9l3-10.3h3.7L62.9 88h-3l-.6-2.4h-2.7zm2.3-2l-.5-1.9c-.2-.6-.4-1.4-.5-2-.2.6-.3 1.5-.5 2.1l-.4 1.8h1.9zM64.8 85.7c.4.3 1.4.6 2.1.6.6 0 .8-.1.8-.4s-.2-.4-1-.7c-1.7-.5-2.2-1.4-2.2-2.3 0-1.5 1.3-2.6 3.2-2.6.9 0 1.8.2 2.3.4l-.4 1.9c-.4-.2-1.1-.4-1.7-.4-.5 0-.8.1-.8.4 0 .2.2.4 1.1.7 1.5.5 2.1 1.3 2.1 2.3 0 1.4-1.1 2.5-3.4 2.5-1 0-2-.2-2.6-.5l.5-1.9zM82.5 88l-.6-.6c-.6.4-1.5.8-2.8.8-2.7 0-3.8-1.5-3.8-2.9 0-1.3.8-2.3 1.9-2.9-.4-.4-.8-1.2-.8-1.9 0-1.3 1.1-2.8 3.3-2.8 1.7 0 3 1 3 2.5 0 1-.6 1.9-1.9 2.6v.1c.5.5.9 1.1 1.4 1.5.4-.6.7-1.5.8-2.3h2.5c-.3 1.5-.8 2.9-1.8 4 .6.7 1.2 1.4 1.9 2.1h-3.1V88zm-1.8-2.2c-.7-.6-1.4-1.4-2.1-2.2-.4.3-.6.7-.6 1.1 0 .8.6 1.4 1.5 1.4.6.1 1-.1 1.2-.3zm-1.6-5.7c0 .4.2.8.7 1.3.6-.5.9-.8.9-1.3 0-.4-.3-.9-.8-.9s-.8.4-.8.9zM93.7 85.6l-.6 2.4h-2.9l3-10.3h3.7L100 88h-3l-.7-2.4h-2.6zm2.2-2l-.5-1.9c-.2-.6-.4-1.4-.5-2-.2.6-.3 1.5-.5 2.1l-.4 1.8h1.9zM101.9 77.8c.9-.1 2.1-.2 3.3-.2 2 0 3.2.3 4.2 1 1.1.8 1.9 2.1 1.9 4 0 2.1-.8 3.5-1.8 4.2-1.1.9-2.8 1.3-4.8 1.3-1.3 0-2.2-.1-2.8-.2V77.8zm2.7 8.1h.6c1.8 0 3.1-1 3.1-3.3 0-2-1.2-3-2.8-3-.4 0-.7 0-.8.1l-.1 6.2zM115.6 88l-3.3-10.3h3l1.1 4.1c.3 1.1.6 2.3.9 3.6.3-1.3.6-2.5.9-3.6l1.1-4.1h2.9L118.8 88h-3.2zM126.7 77.7V88h-2.8V77.7h2.8zM129.4 85.2c.6.3 1.7.6 2.7.6.9 0 1.4-.3 1.4-.8s-.5-.8-1.6-1.2c-1.7-.6-2.9-1.6-2.9-3.1 0-1.8 1.5-3.2 4.1-3.2 1.2 0 2.1.2 2.8.5l-.6 2.2c-.4-.2-1.2-.5-2.3-.5-.8 0-1.3.3-1.3.8s.6.7 1.9 1.2c1.9.7 2.7 1.7 2.7 3.1 0 1.8-1.4 3.3-4.4 3.3-1.2 0-2.5-.3-3-.6l.5-2.3zM148.1 82.7c0 3.3-2 5.4-5.2 5.4s-5-2.4-5-5.3c0-3 2-5.4 5.1-5.4 3.4.1 5.1 2.6 5.1 5.3zm-7.2.2c0 1.9.8 3.1 2.2 3.1 1.3 0 2.1-1.3 2.1-3.2 0-1.8-.8-3.1-2.1-3.1-1.4 0-2.2 1.3-2.2 3.2zM150.1 77.8c.8-.1 2-.2 3.3-.2 1.6 0 2.7.2 3.5.8.7.5 1 1.2 1 2.3 0 1.3-1 2.2-1.8 2.5.7.3 1.1.9 1.3 1.8.3 1.1.7 2.6.9 3h-2.8c-.2-.3-.4-1.1-.7-2.4-.3-1.2-.7-1.5-1.5-1.5h-.4V88h-2.7V77.8h-.1zm2.7 4.4h.7c1 0 1.6-.5 1.6-1.3s-.5-1.2-1.4-1.2c-.5 0-.8 0-.9.1v2.4zM160.3 85.2c.6.3 1.7.6 2.7.6.9 0 1.4-.3 1.4-.8s-.5-.8-1.6-1.2c-1.7-.6-2.9-1.6-2.9-3.1 0-1.8 1.5-3.2 4.1-3.2 1.2 0 2.1.2 2.8.5l-.6 2.2c-.4-.2-1.2-.5-2.3-.5-.8 0-1.3.3-1.3.8s.6.7 1.9 1.2c1.9.7 2.7 1.7 2.7 3.1 0 1.8-1.4 3.3-4.4 3.3-1.2 0-2.5-.3-3-.6l.5-2.3zM134.4 28.2zM174.1 2.2l-14 40.9L146 2.2h-25v4.9c6.2 4.6 10.8 11.2 12.8 18.8h-18.5c-2.9-4.9-8.3-8.2-14.4-8.2-9.3 0-16.8 7.6-16.8 16.8 0 9.3 7.6 16.8 16.8 16.8 6.1 0 11.5-3.3 14.4-8.2h18.6c-2 7.7-6.6 14.3-12.8 18.8v4.9h18.7v-31c0-1.5-.4-7.5-.4-7.9.2.8 1.8 6.4 2.4 7.9l10.7 31H167l10.7-31c.5-1.5 2.2-7.3 2.4-7.9-.1.4-.4 6.4-.4 7.9v31h19.1V2.2h-24.7zM66.7 34.6c0-11.3 5.6-21.4 14.2-27.6V2.2H56.3l-14 40.9-14-40.9h-25V67H22V36c0-1.5-.4-7.5-.4-7.9.2.8 1.8 6.4 2.4 7.9l10.7 31h14.5l10.7-31c.5-1.5 2.2-7.3 2.4-7.9-.1.4-.4 6.4-.4 7.9v31H81v-4.8C72.3 56 66.7 46 66.7 34.6z"/></svg>