<?xml version="1.0" encoding="utf-8"?>
<!-- Generator: Adobe Illustrator 24.1.2, SVG Export Plug-In . SVG Version: 6.00 Build 0)  -->
<svg version="1.1" id="Layer_1" xmlns="http://www.w3.org/2000/svg" xmlns:xlink="http://www.w3.org/1999/xlink" x="0px" y="0px"
	 viewBox="0 0 384 84" style="enable-background:new 0 0 384 84;" xml:space="preserve">
<style type="text/css">
	.st0{fill-rule:evenodd;clip-rule:evenodd;fill:#EE3134;}
	.st1{fill-rule:evenodd;clip-rule:evenodd;}
</style>
<g>
	<path class="st0" d="M38.3,9.9V1.8H1.6v8.2h12.6v35.5h11.4V9.9H38.3L38.3,9.9z M179.5,45.4c-0.3-2.9-0.5-5.1-0.5-6.7V24
		c0-6.1-4.5-9.9-10.4-9.9c-4.3,0.1-8,2-10.1,5.4c-1.3-3.4-5-5.2-8.5-5.2c-4.2,0-7.8,1.4-9.8,5.2L140,15h-10.4v30.4h10.8V27
		c0-1-0.4-6.2,4.5-6.2c3.3,0,4.1,3,4.1,5.9v18.6h10.7V27c0-1-0.4-6.2,4.5-6.2c3.3,0,4.1,3,4.1,5.9v18.6L179.5,45.4L179.5,45.4z
		 M127.2,23.9v-9.3c-4.7-0.1-8.2,1.5-9.6,6.1l-0.2-5.8h-10.8c0.2,2.5,0.2,5.8,0.2,7.8v22.6h10.8V32c0-5,1.5-8.1,7.4-8.2
		C125.7,23.8,126.4,23.8,127.2,23.9L127.2,23.9z M198.1,14.1c-9.9,0-16.4,5.5-16.4,16c0,10.8,6.5,16.1,16.4,16.1
		c9.9,0,16.4-5.4,16.4-16.1C214.4,19.6,207.9,14.1,198.1,14.1L198.1,14.1z M198.1,20.5c4.5,0,5.4,4.7,5.4,9.4c0,5.6-1,9.9-5.4,9.9
		s-5.4-4.4-5.4-9.9C192.7,25.1,193.5,20.4,198.1,20.5L198.1,20.5L198.1,20.5z M71.3,45.4c-0.3-2.9-0.4-5-0.4-6.7V24
		c0-6.1-4.5-9.9-10.5-9.9c-1.8,0-3.6,0.3-5.1,1c-1.4,0.7-2.7,1.6-3.9,3.1V1.8H40.8v43.6h10.8V27c0-1-0.4-6.2,4.5-6.2
		c3.4,0,4.1,3,4.1,5.9v18.6L71.3,45.4L71.3,45.4z M104.2,32.2c0.1-10.9-3.2-18.1-15.4-18.1c-9.6,0-15.4,5.9-15.4,15.2
		c0,11.4,4.1,16.9,15.9,16.9c3.7,0,7-0.8,9.4-2.5c2.7-1.8,4.8-4.5,5.1-8.3h-10c-0.3,2.8-1.9,4.7-5.1,4.7c-4.1,0-5-3.9-4.9-7.7h20.4
		V32.2z M93.9,26.4h-10c0.2-3.2,1-6.5,5-6.7c1.8-0.1,3,0.8,3.8,2.1C93.6,23.1,93.9,24.8,93.9,26.4L93.9,26.4L93.9,26.4z"/>
	<path class="st0" d="M382.6,23.3V14c-4.7-0.1-8.2,1.5-9.6,6.1l-0.2-5.3H362c0.2,2.5,0.2,5.8,0.2,7.8v22.6H373V32
		c0-5,1.5-8.6,7.4-8.8C381.1,23.3,381.8,23.3,382.6,23.3L382.6,23.3z M326.7,45.4c-0.3-2.9-0.4-5-0.4-6.7V24c0-6.1-4.5-9.9-10.5-9.9
		c-1.8,0-3.4,0.3-5,1c-1.4,0.7-2.8,1.6-4,3.1V1.8H296v43.6h10.8V27c0-1-0.4-6.2,4.5-6.2c3.4,0,4.1,3,4.1,5.9v18.6L326.7,45.4
		L326.7,45.4z M293.4,36.3c0-4.7-2.5-7-5.9-8.3c-6.5-2.3-11.3-2.4-11.3-4.8c0-1.8,1-2.8,2.8-2.8c1.4,0,2.3,0.4,2.9,1
		c0.5,0.6,0.8,1.6,0.8,2.9h10.2c-0.2-8-6.5-10.1-13.4-10.1c-5.9,0-13.5,2.1-13.5,9.4c0,10.6,17.2,7.9,17.2,13.5c0,2-1.6,2.9-3.7,2.9
		c-1.2,0-2.2-0.6-2.8-1.5c-0.6-0.8-0.8-1.9-0.7-3h-10.3c-0.2,9.1,6.5,10.7,14,10.7C286.7,46.2,293.4,43.7,293.4,36.3L293.4,36.3z
		 M359.5,32.2c0.1-10.9-3.2-18.1-15.4-18.1c-9.6,0-15.4,5.9-15.4,15.2c0,11.4,4,16.9,15.9,16.9c3.7,0,7-0.8,9.4-2.5
		c2.7-1.8,4.8-4.5,5.1-8.3H349c-0.3,2.8-1.9,4.7-5.1,4.7c-4.1,0-5-3.9-4.9-7.7h20.6V32.2z M349.4,26.4h-10c0.2-3.2,1-6.5,5-6.7
		c1.8-0.1,3,0.8,3.8,2.1C349,23.1,349.4,24.8,349.4,26.4L349.4,26.4L349.4,26.4z M263.1,45.4V14.9h-10.8v30.4L263.1,45.4L263.1,45.4
		z M249,9.7l2.5-8h-28.9v43.6H234V28.2h9.2l2.5-8H234V9.7H249L249,9.7z M263.1,9.7l2.6-8h-10.6l-2.6,8H263.1L263.1,9.7z"/>
	<path class="st1" d="M100.2,82.8V58.2h3.9v24.7H100.2L100.2,82.8z M365.6,83.2c-8.2,0-14.4-4.6-14.4-12.6c0-8.1,6.9-13.1,14.7-13.1
		c2.8,0,5.8,0.9,7.8,2.2l-2,2.4c-1.7-1-3.6-1.6-5.7-1.6c-3,0-5.9,0.9-7.8,3c-1.6,1.8-2.5,4-2.5,7.2c0,3.5,1.1,5.4,2.9,7.2
		c1.9,1.9,4.8,2.4,7.6,2.4c2.3,0,4.5-0.8,6.3-1.8l1.9,2.3C372.3,82.2,368.9,83.2,365.6,83.2L365.6,83.2z M324.2,82.8V58.2h3.9v24.7
		H324.2L324.2,82.8z M235,61.1h-9.2v21.8H222V61.1h-9.2v-3h22.7L235,61.1L235,61.1z M29.7,81.9c-1.9,0.9-4.2,1.4-7,1.4
		c-3.5,0-7.1-0.8-10-2.2l1.6-2.8c2.9,1.4,5.6,2.1,8.6,2.1c2,0,3.3-0.3,4.5-1c1.4-0.8,2.2-1.8,2.2-3.2c0-2.1-1.6-3.4-5.4-4.2l-4-0.9
		c-4-0.9-6.5-3.4-6.5-6.4c0-4.2,4.1-7.2,10.1-7.2c3.5,0,7.1,0.9,9.5,2.4l-1.8,2.6c-2.4-1.3-4.9-2-7.5-2c-3.5,0-6,1.4-6,3.7
		c0,1.8,1.5,2.9,4.9,3.7l3.7,0.9c2.1,0.5,4.3,1.4,5.5,2.5c1.2,1.1,1.9,2.8,1.9,4.4C34.1,78.2,32.5,80.6,29.7,81.9L29.7,81.9z
		 M188,82.8l-9.8-13.2c-1.8-2.5-5-7.3-5-7.3s0.3,4.2,0.4,7.8l0.1,12.7h-3.9V58.2h4.7l9.9,13.5c1.9,2.6,4.6,6.8,4.6,6.8
		s-0.6-4.6-0.6-7.8l-0.1-12.4h3.9v24.7L188,82.8L188,82.8z M255.7,82.8V58.2h3.9v24.7H255.7L255.7,82.8z M302.6,61.1H289v7.3h11.5
		v2.9H289v11.6h-3.9V58.2h18L302.6,61.1L302.6,61.1z M129.7,82.8V58.2h18.3l-0.5,3h-13.8v7.4h11.7v3h-11.7V80h14.7V83h-18.7V82.8z
		 M69.7,83.2c-8.2,0-14.4-4.6-14.4-12.6c0-8.1,6.9-13.1,14.7-13.1c2.8,0,5.8,0.9,7.8,2.2l-2,2.4c-1.7-1-3.6-1.6-5.7-1.6
		c-3,0-5.9,0.9-7.9,3c-1.6,1.8-2.5,4-2.5,7.2c0,3.5,1.1,5.4,2.9,7.2c1.9,1.9,4.8,2.4,7.6,2.4c2.3,0,4.5-0.8,6.3-1.8l1.9,2.3
		C76.4,82.2,73,83.2,69.7,83.2L69.7,83.2z"/>
</g>
</svg>
